<mxfile host="app.diagrams.net" modified="2023-08-29T15:33:13.510Z" agent="Mozilla/5.0 (Windows NT 10.0; Win64; x64) AppleWebKit/537.36 (KHTML, like Gecko) Chrome/116.0.0.0 Safari/537.36" version="21.7.0" etag="WDd0nNck_sxISIJ8qdm6" type="github">
  <diagram name="Page-1" id="I1fZ7e_97IfDNI_ylrYl">
    <mxGraphModel>
      <root>
        <mxCell id="0" />
        <mxCell id="1" parent="0" />
      </root>
    </mxGraphModel>
  </diagram>
</mxfile>
